<mxfile host="app.diagrams.net" modified="2022-08-09T05:29:51.345Z" agent="5.0 (Windows NT 10.0; Win64; x64) AppleWebKit/537.36 (KHTML, like Gecko) Chrome/103.0.0.0 Safari/537.36" etag="JJCrRIVT30_idFUbZNVu" version="20.2.3" type="github">
  <diagram id="kVpKytxtgLy68dnIUf_P" name="Page-1">
    <mxGraphModel dx="1340" dy="539" grid="0" gridSize="10" guides="1" tooltips="1" connect="1" arrows="1" fold="1" page="0" pageScale="1" pageWidth="827" pageHeight="1169" math="0" shadow="0">
      <root>
        <mxCell id="0" />
        <mxCell id="1" parent="0" />
        <mxCell id="zoNketT7VrxpnGaKjotu-1" value="以官渡镇为模板分析湛江市整体生蚝养殖和利用情况" style="rounded=0;whiteSpace=wrap;html=1;" parent="1" vertex="1">
          <mxGeometry x="12.5" y="92.5" width="114.5" height="73.5" as="geometry" />
        </mxCell>
        <mxCell id="zoNketT7VrxpnGaKjotu-2" value="收集分析村落基本信息，建立多层分析结构模型，选出“模型村落”" style="rounded=0;whiteSpace=wrap;html=1;" parent="1" vertex="1">
          <mxGeometry x="205" y="92.5" width="124" height="76" as="geometry" />
        </mxCell>
        <mxCell id="zoNketT7VrxpnGaKjotu-3" value="" style="html=1;shadow=0;dashed=0;align=center;verticalAlign=middle;shape=mxgraph.arrows2.twoWayArrow;dy=0.65;dx=22;" parent="1" vertex="1">
          <mxGeometry x="131" y="118" width="67" height="29" as="geometry" />
        </mxCell>
        <mxCell id="zoNketT7VrxpnGaKjotu-6" value="&lt;p class=&quot;MsoNormal&quot;&gt;&lt;span style=&quot;mso-spacerun:&#39;yes&#39;;font-family:仿宋_GB2312;mso-hansi-font-family:&#39;Times New Roman&#39;;&lt;br/&gt;mso-bidi-font-family:&#39;Times New Roman&#39;;font-size:12.0000pt;mso-font-kerning:1.0000pt;&quot;&gt;&lt;font face=&quot;仿宋_GB2312&quot;&gt;乡村振兴背景下牡蛎医药产业高质量发展策略研究&lt;/font&gt;&lt;font face=&quot;仿宋_GB2312&quot;&gt;——以广东省湛江市为例&lt;/font&gt;&lt;/span&gt;&lt;/p&gt;" style="rounded=0;whiteSpace=wrap;html=1;" parent="1" vertex="1">
          <mxGeometry x="237" y="409" width="275" height="69" as="geometry" />
        </mxCell>
        <mxCell id="zoNketT7VrxpnGaKjotu-9" value="" style="shape=curlyBracket;whiteSpace=wrap;html=1;rounded=1;" parent="1" vertex="1">
          <mxGeometry x="-17" y="115.5" width="20" height="351" as="geometry" />
        </mxCell>
        <mxCell id="zoNketT7VrxpnGaKjotu-10" value="明确&lt;br&gt;项目&lt;br&gt;可行性" style="text;html=1;resizable=0;autosize=1;align=center;verticalAlign=middle;points=[];fillColor=none;strokeColor=none;rounded=0;" parent="1" vertex="1">
          <mxGeometry x="-69" y="263.5" width="54" height="55" as="geometry" />
        </mxCell>
        <mxCell id="zoNketT7VrxpnGaKjotu-11" value="" style="html=1;shadow=0;dashed=0;align=center;verticalAlign=middle;shape=mxgraph.arrows2.triadArrow;dy=10;dx=20;arrowHead=40;" parent="1" vertex="1">
          <mxGeometry x="322" y="495" width="101" height="74" as="geometry" />
        </mxCell>
        <mxCell id="zoNketT7VrxpnGaKjotu-12" value="将牡蛎壳与传统中医药产业结合，构建以&lt;b&gt;“&lt;/b&gt;&lt;b&gt;原料收集-处理加工-产出销售”&lt;/b&gt;为模板的产业链" style="rounded=0;whiteSpace=wrap;html=1;" parent="1" vertex="1">
          <mxGeometry x="107" y="500.5" width="198" height="69" as="geometry" />
        </mxCell>
        <mxCell id="zoNketT7VrxpnGaKjotu-13" value="与产业链相联系明确产业终端市场分布，根据当地村镇的牡蛎相关情况进一步分析，得出销售模式运作图" style="rounded=0;whiteSpace=wrap;html=1;" parent="1" vertex="1">
          <mxGeometry x="440" y="501.5" width="203" height="68" as="geometry" />
        </mxCell>
        <mxCell id="zoNketT7VrxpnGaKjotu-14" value="" style="html=1;shadow=0;dashed=0;align=center;verticalAlign=middle;shape=mxgraph.arrows2.arrow;dy=0.6;dx=40;direction=south;notch=0;rotation=-30;" parent="1" vertex="1">
          <mxGeometry x="238" y="574" width="38" height="75" as="geometry" />
        </mxCell>
        <mxCell id="zoNketT7VrxpnGaKjotu-15" value="" style="html=1;shadow=0;dashed=0;align=center;verticalAlign=middle;shape=mxgraph.arrows2.arrow;dy=0.6;dx=40;direction=south;notch=0;rotation=30;" parent="1" vertex="1">
          <mxGeometry x="474" y="574" width="38" height="75" as="geometry" />
        </mxCell>
        <mxCell id="zoNketT7VrxpnGaKjotu-16" value="制定具体的实施方案" style="rounded=0;whiteSpace=wrap;html=1;" parent="1" vertex="1">
          <mxGeometry x="234" y="649" width="277" height="45" as="geometry" />
        </mxCell>
        <mxCell id="zoNketT7VrxpnGaKjotu-17" value="" style="shape=curlyBracket;whiteSpace=wrap;html=1;rounded=1;" parent="1" vertex="1">
          <mxGeometry x="-15" y="495" width="20" height="190" as="geometry" />
        </mxCell>
        <mxCell id="zoNketT7VrxpnGaKjotu-18" value="验证&lt;br&gt;分析&lt;br&gt;问题" style="text;html=1;resizable=0;autosize=1;align=center;verticalAlign=middle;points=[];fillColor=none;strokeColor=none;rounded=0;" parent="1" vertex="1">
          <mxGeometry x="-63" y="562.5" width="42" height="55" as="geometry" />
        </mxCell>
        <mxCell id="zoNketT7VrxpnGaKjotu-20" value="" style="html=1;shadow=0;dashed=0;align=center;verticalAlign=middle;shape=mxgraph.arrows2.arrow;dy=0.6;dx=40;direction=south;notch=0;" parent="1" vertex="1">
          <mxGeometry x="236" y="704" width="42" height="78" as="geometry" />
        </mxCell>
        <mxCell id="zoNketT7VrxpnGaKjotu-21" value="" style="html=1;shadow=0;dashed=0;align=center;verticalAlign=middle;shape=mxgraph.arrows2.arrow;dy=0.6;dx=40;direction=south;notch=0;" parent="1" vertex="1">
          <mxGeometry x="352.5" y="704" width="42" height="78" as="geometry" />
        </mxCell>
        <mxCell id="zoNketT7VrxpnGaKjotu-22" value="" style="html=1;shadow=0;dashed=0;align=center;verticalAlign=middle;shape=mxgraph.arrows2.arrow;dy=0.6;dx=40;direction=south;notch=0;" parent="1" vertex="1">
          <mxGeometry x="469" y="704" width="42" height="78" as="geometry" />
        </mxCell>
        <mxCell id="zoNketT7VrxpnGaKjotu-24" value="收集与初步处理" style="rounded=0;whiteSpace=wrap;html=1;" parent="1" vertex="1">
          <mxGeometry x="222" y="790" width="70" height="36" as="geometry" />
        </mxCell>
        <mxCell id="zoNketT7VrxpnGaKjotu-25" value="加工与销售" style="rounded=0;whiteSpace=wrap;html=1;" parent="1" vertex="1">
          <mxGeometry x="338.5" y="790" width="70" height="36" as="geometry" />
        </mxCell>
        <mxCell id="zoNketT7VrxpnGaKjotu-26" value="培训村民相关技术" style="rounded=0;whiteSpace=wrap;html=1;" parent="1" vertex="1">
          <mxGeometry x="455" y="790" width="70" height="36" as="geometry" />
        </mxCell>
        <mxCell id="zoNketT7VrxpnGaKjotu-30" value="" style="html=1;shadow=0;dashed=0;align=center;verticalAlign=middle;shape=mxgraph.arrows2.arrow;dy=0.6;dx=40;direction=south;notch=0;" parent="1" vertex="1">
          <mxGeometry x="470" y="837" width="42" height="78" as="geometry" />
        </mxCell>
        <mxCell id="zoNketT7VrxpnGaKjotu-31" value="" style="html=1;shadow=0;dashed=0;align=center;verticalAlign=middle;shape=mxgraph.arrows2.arrow;dy=0.6;dx=40;direction=south;notch=0;" parent="1" vertex="1">
          <mxGeometry x="293.75" y="839" width="42" height="78" as="geometry" />
        </mxCell>
        <mxCell id="zoNketT7VrxpnGaKjotu-32" value="生牡蛎和煅牡蛎炮制法" style="rounded=0;whiteSpace=wrap;html=1;" parent="1" vertex="1">
          <mxGeometry x="408.5" y="924.25" width="140" height="55" as="geometry" />
        </mxCell>
        <mxCell id="zoNketT7VrxpnGaKjotu-37" value="" style="html=1;shadow=0;dashed=0;align=center;verticalAlign=middle;shape=mxgraph.arrows2.arrow;dy=0.6;dx=40;direction=south;notch=0;" parent="1" vertex="1">
          <mxGeometry x="354" y="989" width="53" height="82" as="geometry" />
        </mxCell>
        <mxCell id="zoNketT7VrxpnGaKjotu-39" value="联系实际情况分析，总结优化方案" style="rounded=0;whiteSpace=wrap;html=1;" parent="1" vertex="1">
          <mxGeometry x="260.63" y="1082" width="239.75" height="67" as="geometry" />
        </mxCell>
        <mxCell id="zoNketT7VrxpnGaKjotu-40" value="" style="html=1;shadow=0;dashed=0;align=center;verticalAlign=middle;shape=mxgraph.arrows2.arrow;dy=0.6;dx=40;direction=south;notch=0;" parent="1" vertex="1">
          <mxGeometry x="355.5" y="1159" width="53" height="82" as="geometry" />
        </mxCell>
        <mxCell id="zoNketT7VrxpnGaKjotu-41" value="分析试验结果，撰写相关报告" style="rounded=0;whiteSpace=wrap;html=1;" parent="1" vertex="1">
          <mxGeometry x="260.5" y="1249" width="243" height="64" as="geometry" />
        </mxCell>
        <mxCell id="zoNketT7VrxpnGaKjotu-42" value="" style="html=1;shadow=0;dashed=0;align=center;verticalAlign=middle;shape=mxgraph.arrows2.twoWayArrow;dy=0.65;dx=22;rotation=90;" parent="1" vertex="1">
          <mxGeometry x="344.25" y="1331" width="75.5" height="57" as="geometry" />
        </mxCell>
        <mxCell id="zoNketT7VrxpnGaKjotu-44" value="收集各方反馈意见，完善优化项目方案" style="ellipse;whiteSpace=wrap;html=1;" parent="1" vertex="1">
          <mxGeometry x="258.01" y="1406" width="245" height="86" as="geometry" />
        </mxCell>
        <mxCell id="zoNketT7VrxpnGaKjotu-45" value="" style="shape=curlyBracket;whiteSpace=wrap;html=1;rounded=1;" parent="1" vertex="1">
          <mxGeometry x="-15" y="710" width="20" height="401" as="geometry" />
        </mxCell>
        <mxCell id="zoNketT7VrxpnGaKjotu-46" value="具体&lt;br&gt;方案&lt;br&gt;构建" style="text;html=1;resizable=0;autosize=1;align=center;verticalAlign=middle;points=[];fillColor=none;strokeColor=none;rounded=0;" parent="1" vertex="1">
          <mxGeometry x="-63" y="924" width="42" height="55" as="geometry" />
        </mxCell>
        <mxCell id="zoNketT7VrxpnGaKjotu-47" value="" style="shape=curlyBracket;whiteSpace=wrap;html=1;rounded=1;" parent="1" vertex="1">
          <mxGeometry x="-15" y="1138" width="20" height="335" as="geometry" />
        </mxCell>
        <mxCell id="zoNketT7VrxpnGaKjotu-48" value="总结&lt;br&gt;反馈&lt;br&gt;优化" style="text;html=1;resizable=0;autosize=1;align=center;verticalAlign=middle;points=[];fillColor=none;strokeColor=none;rounded=0;" parent="1" vertex="1">
          <mxGeometry x="-63" y="1278" width="42" height="55" as="geometry" />
        </mxCell>
        <mxCell id="BykCIhDSjuHWzDZn-eu--3" value="结合团队专业优势及环境资料搜集，明确废弃牡蛎壳堆放分布情况和来源" style="rounded=0;whiteSpace=wrap;html=1;" vertex="1" parent="1">
          <mxGeometry x="419" y="95" width="121" height="73.5" as="geometry" />
        </mxCell>
        <mxCell id="BykCIhDSjuHWzDZn-eu--4" value="" style="html=1;shadow=0;dashed=0;align=center;verticalAlign=middle;shape=mxgraph.arrows2.twoWayArrow;dy=0.65;dx=22;" vertex="1" parent="1">
          <mxGeometry x="340" y="118" width="67" height="29" as="geometry" />
        </mxCell>
        <mxCell id="BykCIhDSjuHWzDZn-eu--5" value="" style="html=1;shadow=0;dashed=0;align=center;verticalAlign=middle;shape=mxgraph.arrows2.arrow;dy=0.6;dx=40;direction=south;notch=0;rotation=-45;" vertex="1" parent="1">
          <mxGeometry x="90" y="184" width="41" height="74" as="geometry" />
        </mxCell>
        <mxCell id="BykCIhDSjuHWzDZn-eu--6" value="整合分析各项数据，以发放调查问卷的形式询问当地村民意见，探讨方案的可行性及拟定内容" style="rounded=0;whiteSpace=wrap;html=1;" vertex="1" parent="1">
          <mxGeometry x="238" y="258" width="274" height="66" as="geometry" />
        </mxCell>
        <mxCell id="BykCIhDSjuHWzDZn-eu--7" value="" style="html=1;shadow=0;dashed=0;align=center;verticalAlign=middle;shape=mxgraph.arrows2.arrow;dy=0.6;dx=40;direction=south;notch=0;" vertex="1" parent="1">
          <mxGeometry x="352" y="330" width="41" height="74" as="geometry" />
        </mxCell>
        <mxCell id="BykCIhDSjuHWzDZn-eu--13" value="划分村民收入结构，运用灰色关联度分析法分析农户不同来源收入与总收入的关联性" style="rounded=0;whiteSpace=wrap;html=1;" vertex="1" parent="1">
          <mxGeometry x="629" y="95.75" width="121" height="73.5" as="geometry" />
        </mxCell>
        <mxCell id="BykCIhDSjuHWzDZn-eu--14" value="" style="html=1;shadow=0;dashed=0;align=center;verticalAlign=middle;shape=mxgraph.arrows2.twoWayArrow;dy=0.65;dx=22;" vertex="1" parent="1">
          <mxGeometry x="552" y="118" width="67" height="29" as="geometry" />
        </mxCell>
        <mxCell id="BykCIhDSjuHWzDZn-eu--19" value="" style="html=1;shadow=0;dashed=0;align=center;verticalAlign=middle;shape=mxgraph.arrows2.arrow;dy=0.6;dx=40;direction=south;notch=0;rotation=-30;" vertex="1" parent="1">
          <mxGeometry x="259" y="178" width="41" height="74" as="geometry" />
        </mxCell>
        <mxCell id="BykCIhDSjuHWzDZn-eu--20" value="" style="html=1;shadow=0;dashed=0;align=center;verticalAlign=middle;shape=mxgraph.arrows2.arrow;dy=0.6;dx=40;direction=south;notch=0;rotation=30;" vertex="1" parent="1">
          <mxGeometry x="445" y="178" width="41" height="74" as="geometry" />
        </mxCell>
        <mxCell id="BykCIhDSjuHWzDZn-eu--21" value="" style="html=1;shadow=0;dashed=0;align=center;verticalAlign=middle;shape=mxgraph.arrows2.arrow;dy=0.6;dx=40;direction=south;notch=0;rotation=45;" vertex="1" parent="1">
          <mxGeometry x="619" y="187" width="41" height="74" as="geometry" />
        </mxCell>
        <mxCell id="BykCIhDSjuHWzDZn-eu--25" value="由多种渠道获取牡蛎壳来源，经初步筛选后，村民自行制作或送往药厂加工，然后产出销售" style="rounded=0;whiteSpace=wrap;html=1;" vertex="1" parent="1">
          <mxGeometry x="221" y="923" width="173.5" height="56.25" as="geometry" />
        </mxCell>
      </root>
    </mxGraphModel>
  </diagram>
</mxfile>
